<svg viewBox="0 0 8 8" fill="none" xmlns="http://www.w3.org/2000/svg">
<path fill-rule="evenodd" clip-rule="evenodd" d="M0.500977 3.50089C0.500977 3.36828 0.553655 3.2411 0.647423 3.14733C0.741191 3.05356 0.868368 3.00089 1.00098 3.00089H7.50098C7.63358 3.00089 7.76076 3.05356 7.85453 3.14733C7.9483 3.2411 8.00098 3.36828 8.00098 3.50089C8.00098 3.63349 7.9483 3.76067 7.85453 3.85444C7.76076 3.94821 7.63358 4.00089 7.50098 4.00089H1.00098C0.868368 4.00089 0.741191 3.94821 0.647423 3.85444C0.553655 3.76067 0.500977 3.63349 0.500977 3.50089Z" fill="black"/>
<path fill-rule="evenodd" clip-rule="evenodd" d="M3.85489 0.146894C3.90146 0.193339 3.9384 0.248515 3.96361 0.30926C3.98881 0.370005 4.00179 0.435126 4.00179 0.500894C4.00179 0.566661 3.98881 0.631782 3.96361 0.692527C3.9384 0.753272 3.90146 0.808448 3.85489 0.854894L1.20789 3.50089L3.85489 6.14689C3.90138 6.19338 3.93826 6.24857 3.96342 6.30931C3.98858 6.37005 4.00152 6.43515 4.00152 6.50089C4.00152 6.56664 3.98858 6.63174 3.96342 6.69248C3.93826 6.75322 3.90138 6.80841 3.85489 6.85489C3.80841 6.90138 3.75322 6.93826 3.69248 6.96342C3.63174 6.98858 3.56664 7.00152 3.50089 7.00152C3.43515 7.00152 3.37005 6.98858 3.30931 6.96342C3.24857 6.93826 3.19338 6.90138 3.14689 6.85489L0.146894 3.85489C0.10033 3.80845 0.0633875 3.75327 0.0381811 3.69253C0.0129746 3.63178 0 3.56666 0 3.50089C0 3.43513 0.0129746 3.37001 0.0381811 3.30926C0.0633875 3.24851 0.10033 3.19334 0.146894 3.14689L3.14689 0.146894C3.19334 0.10033 3.24851 0.0633873 3.30926 0.0381808C3.37001 0.0129744 3.43513 0 3.50089 0C3.56666 0 3.63178 0.0129744 3.69253 0.0381808C3.75327 0.0633873 3.80845 0.10033 3.85489 0.146894V0.146894Z" fill="black"/>
</svg>
