<svg viewBox="0 0 8 8" fill="none" xmlns="http://www.w3.org/2000/svg">
<path fill-rule="evenodd" clip-rule="evenodd" d="M7.5 3.50064C7.5 3.63325 7.44732 3.76043 7.35355 3.85419C7.25979 3.94796 7.13261 4.00064 7 4.00064L0.5 4.00064C0.367392 4.00064 0.240214 3.94796 0.146446 3.85419C0.0526781 3.76043 3.21184e-08 3.63325 4.37114e-08 3.50064C5.53044e-08 3.36803 0.0526781 3.24085 0.146446 3.14709C0.240214 3.05332 0.367392 3.00064 0.5 3.00064L7 3.00064C7.13261 3.00064 7.25979 3.05332 7.35355 3.14709C7.44732 3.24086 7.5 3.36803 7.5 3.50064Z" fill="black"/>
<path fill-rule="evenodd" clip-rule="evenodd" d="M4.14608 6.85463C4.09952 6.80819 4.06258 6.75301 4.03737 6.69227C4.01216 6.63152 3.99919 6.5664 3.99919 6.50063C3.99919 6.43486 4.01216 6.36974 4.03737 6.309C4.06258 6.24825 4.09952 6.19308 4.14608 6.14663L6.79308 3.50063L4.14608 0.854632C4.0996 0.808144 4.06272 0.752955 4.03756 0.692216C4.0124 0.631476 3.99945 0.566376 3.99945 0.500632C3.99945 0.434888 4.0124 0.369788 4.03756 0.309048C4.06272 0.248309 4.0996 0.19312 4.14608 0.146632C4.19257 0.100144 4.24776 0.0632676 4.3085 0.0381085C4.36924 0.0129494 4.43434 6.41869e-07 4.50008 6.47616e-07C4.56583 6.53364e-07 4.63093 0.0129494 4.69167 0.0381085C4.75241 0.0632676 4.8076 0.100144 4.85408 0.146632L7.85408 3.14663C7.90065 3.19308 7.93759 3.24825 7.9628 3.309C7.988 3.36974 8.00098 3.43486 8.00098 3.50063C8.00098 3.5664 7.988 3.63152 7.9628 3.69227C7.93759 3.75301 7.90065 3.80819 7.85408 3.85463L4.85408 6.85463C4.80764 6.9012 4.75246 6.93814 4.69172 6.96334C4.63097 6.98855 4.56585 7.00153 4.50008 7.00153C4.43432 7.00153 4.36919 6.98855 4.30845 6.96334C4.2477 6.93814 4.19253 6.9012 4.14608 6.85463V6.85463Z" fill="black"/>
</svg>
